<svg xmlns="http://www.w3.org/2000/svg" viewBox="0 0 125 100" width="100%" height="100%"><g fill="none"><path fill="#FF5F00" d="M63.5 10.8C55.6 15.6 50 24.3 50 34.3c0 9.9 5.5 18.6 13.5 23.5-3.5 2.2-7.8 3.5-13.5 3.5-18.5 0-33.5-12.8-33.5-27 0-14.2 15-27 33.5-27 5.7 0 10 1.3 13.5 3.5z"/><path fill="#EB001B" d="M76 61.3c8 0 16-2 22.5-5.8C89.4 69 77.9 78 63.5 78c-14.4 0-25.9-9-35-22.5 6.5 3.8 14.5 5.8 22.5 5.8 6.9 0 13.4-1.5 19-4-1.2 1.4-2.5 2.7-4 4z"/><path fill="#F79E1B" d="M63.5 23.5c8 4.9 13.5 13.6 13.5 23.5 0 9.9-5.5 18.6-13.5 23.5-1.9-1.2-3.7-2.6-5.3-4.2 2.7-5.5 4.3-11.8 4.3-18.4s-1.6-12.9-4.3-18.4c1.6-1.6 3.4-3 5.3-4.2z"/><path fill="#FF5F00" d="M63.5 10.8c5.7-3.5 10-5.8 13.5-5.8 18.5 0 33.5 12.8 33.5 27 0 14.2-15 27-33.5 27-5.7-3.5-10-5.8-13.5-5.8 8-4.9 13.5-13.6 13.5-23.5 0-9.9-5.5-18.6-13.5-23.5z"/></g><text y="95" font-size="20" font-family="Arial" fill="#fff">Mastercard</text></svg>
<!-- Simplified for better visibility, replacing with standard circles -->
<svg xmlns="http://www.w3.org/2000/svg" viewBox="0 0 100 62"><circle cx="31" cy="31" r="31" fill="#eb001b"/><circle cx="69" cy="31" r="31" fill="#f79e1b" fill-opacity=".85"/><path d="M50 8.8a31 31 0 0 0-10.4 22.2 31 31 0 0 0 10.4 22.2 31 31 0 0 0 10.4-22.2A31 31 0 0 0 50 8.8z" fill="#ff5f00"/></svg>
