<svg xmlns="http://www.w3.org/2000/svg" viewBox="0 0 124 33"><path fill="#253b80" d="M46.211 6.749h-6.839a.95.95 0 0 0-.939.802l-2.766 17.537a.574.574 0 0 0 .568.666h3.297a.469.469 0 0 0 .466-.402l.78-4.944a.48.48 0 0 1 .475-.404h2.518c3.551 0 6.326-1.438 7.155-5.698.397-2.042.062-3.606-1.123-5.07-1.1-1.357-2.835-2.487-3.592-2.487zM10.803 6.75h-7.06a.95.95 0 0 0-.938.802L.039 25.09a.574.574 0 0 0 .568.667h3.428a.468.468 0 0 0 .463-.393l.896-5.684a.48.48 0 0 1 .475-.405h2.463c3.551 0 6.326-1.438 7.155-5.698.397-2.042.062-3.606-1.123-5.07-1.1-1.357-2.835-2.487-3.592-2.487zM80.057 6.749h-6.839a.95.95 0 0 0-.939.802l-2.766 17.537a.574.574 0 0 0 .568.666h3.298a.469.469 0 0 0 .466-.402l.78-4.944a.48.48 0 0 1 .475-.404h2.518c3.551 0 6.326-1.438 7.155-5.698.397-2.042.062-3.606-1.123-5.07-1.1-1.357-2.835-2.487-3.592-2.487zM62.342 6.75H57.65a.95.95 0 0 0-.92.658l-5.65 17.683a.468.468 0 0 0 .445.61h3.498a.468.468 0 0 0 .445-.327l.798-2.858a.56.56 0 0 1 .536-.398h5.309c2.81 0 5.63-1.1 6.556-4.988 1.134-4.764-1.85-10.38-6.325-10.38zM26.936 6.75h-4.693a.95.95 0 0 0-.92.658l-5.65 17.683a.468.468 0 0 0 .445.61h3.498a.468.468 0 0 0 .445-.327l.798-2.858a.56.56 0 0 1 .536-.398h5.309c2.81 0 5.63-1.1 6.556-4.988 1.134-4.764-1.85-10.38-6.325-10.38zM96.79 6.75h-3.542a.56.56 0 0 0-.55.434l-4.14 17.917a.56.56 0 0 0 .546.685h3.04a.468.468 0 0 0 .458-.363l.79-3.414.07-.367a.48.48 0 0 1 .47-.393h.693c4.156 0 7.404-2.023 8.375-7.014.908-4.66-1.41-7.485-6.21-7.485z"/><path fill="#179bd7" d="M109.914 6.75h-3.326a.56.56 0 0 0-.547.433l-4.142 17.876a.56.56 0 0 0 .546.686h2.823a.468.468 0 0 0 .458-.364l4.14-17.945a.48.48 0 0 1 .466-.372h.13a.56.56 0 0 0 .547-.434l.117-.506a.56.56 0 0 0-.546-.686c-.147 0-.395.07-.666.312z"/><path fill="#253b80" d="M10.803 6.75h-7.06a.95.95 0 0 0-.938.802L.039 25.09a.574.574 0 0 0 .568.667h3.428a.468.468 0 0 0 .463-.393l.896-5.684a.48.48 0 0 1 .475-.405h2.463c3.551 0 6.326-1.438 7.155-5.698.397-2.042.062-3.606-1.123-5.07-.58-1.527-1.59-2.585-2.488-3.085z"/><path fill="#179bd7" d="M10.354 15.111c-1.185 2.09-3.04 3.654-5.01 4.567h-1.07a.48.48 0 0 0-.476.405l-.895 5.684a.468.468 0 0 1-.463.393H.579a.574.574 0 0 1-.568-.667L1.22 17.747h.038l.643-4.084a.95.95 0 0 1 .938-.802H9.9c2.046 0 3.733.829 4.8 2.25 0 0-3.16.035-4.346 0z"/><path fill="#222d65" d="M13.684 10.457c-.83-5.7-4.34-5.34-4.34-5.34.615.5 1.625 1.558 2.205 3.085 1.258 3.32-2.144 5.215-2.144 5.215-1.066-1.42-2.67-2.25-4.717-2.25H2.805a.95.95 0 0 0-.938.802L.262 21.83l1.547-9.825a.95.95 0 0 1 .939-.802h3.9c.756 0 2.49 1.13 3.59 2.488 1.186 1.464 1.52 3.028 1.124 5.07-.83 4.26-3.604 5.698-7.155 5.698H1.745a.48.48 0 0 0-.475.405l-.65 4.137a.574.574 0 0 0 .567.666h3.69a.95.95 0 0 0 .937-.802l1.355-8.586.3-1.928.614-3.896a.48.48 0 0 1 .476-.405h1.21c5.06 0 5.81-3.164 5.81-4.214 0-.49-.074-.887-.19-1.2-.56.974-1.285 1.64-1.705 2.02z"/></svg>
