<svg xmlns="http://www.w3.org/2000/svg" viewBox="0 0 384 122" width="100%" height="100%"><g fill="none"><path fill="#1434CB" d="M153.307 5.88l-9.39 60.18-8.995-50.627c-1.637-6.287-6.257-8.39-12.043-8.68L78.618 6.4h42.17l8.28 41.22L147.21 6.4h30.29l16.152 77.295h-24.63zm-49.882 0L67.75 97.46H45.215L74.83 26.696 63.858 6.643H21.46C15.86 6.643 11.2 10.33 9.4 14.655L.27 61.218 31.84 96.887 53.642 6.4h49.783zM257.65 6.4h-22.18l-15.526 77.295h22.775s5.55-15.46 6.777-18.84c3.298 0 31.42.146 35.412.146 1.05 4.8 4.265 18.694 4.265 18.694h20.125L257.65 6.4zm-2.072 41.742c3.414-9.2 8.358-24.878 8.358-24.878l5.81 25.17-14.167-.293zM384 64.918c-.846-34.8-49.07-36.67-49.623-6.52-.38 31.79 66.822 17.77 66.822 55.438 0 10.8-7.245 42.164-58.006 42.164-16.71 0-29.213-2.19-29.213-2.19l1.868-24.538s8.003 3.447 23.368 4.616c29.74 2.278 40.523-5.346 40.873-19.98.67-28.798-65.01-16.48-65.623-54.12-.555-27.14 26.96-41.286 54.498-41.286 12.388 0 21.648 1.433 21.648 1.433L384 64.918z"/></g></svg>
